<?xml version="1.0" standalone="no"?>
<!DOCTYPE svg PUBLIC "-//W3C//DTD SVG 20010904//EN"
 "http://www.w3.org/TR/2001/REC-SVG-20010904/DTD/svg10.dtd">
<svg version="1.0" xmlns="http://www.w3.org/2000/svg"
 width="78.000000pt" height="92.000000pt" viewBox="0 0 78.000000 92.000000"
 preserveAspectRatio="xMidYMid meet">

<g transform="translate(0.000000,92.000000) scale(0.100000,-0.100000)"
fill="#000000" stroke="none">
<path d="M230 745 c0 -20 -5 -25 -25 -25 l-25 0 0 -150 0 -150 25 0 25 0 0
-200 0 -200 -115 0 c-70 0 -115 -4 -115 -10 0 -6 137 -10 390 -10 253 0 390 4
390 10 0 6 -48 10 -125 10 l-125 0 0 200 0 200 25 0 25 0 0 150 0 150 -25 0
c-20 0 -25 5 -25 25 l0 25 -150 0 -150 0 0 -25z m300 -175 l0 -150 -150 0
-150 0 0 150 0 150 150 0 150 0 0 -150z m-50 -350 l0 -150 -50 0 -50 0 0 50
c0 47 -2 50 -25 50 -23 0 -25 -3 -25 -50 0 -47 -2 -50 -25 -50 l-25 0 0 150 0
150 100 0 100 0 0 -150z"/>
<path d="M380 620 l0 -50 50 0 50 0 0 50 0 50 -50 0 -50 0 0 -50z"/>
</g>
</svg>
